<?xml version="1.0" encoding="UTF-8" standalone="no"?>
<!-- Generator: Adobe Illustrator 26.0.1, SVG Export Plug-In . SVG Version: 6.00 Build 0)  -->

<svg
   version="1.1"
   id="Capa_1"
   x="0px"
   y="0px"
   viewBox="0 0 24 24"
   style="enable-background:new 0 0 24 24;"
   xml:space="preserve"
   width="512"
   height="512"
   sodipodi:docname="linkedin.svg"
   inkscape:version="1.2.2 (732a01da63, 2022-12-09)"
   xmlns:inkscape="http://www.inkscape.org/namespaces/inkscape"
   xmlns:sodipodi="http://sodipodi.sourceforge.net/DTD/sodipodi-0.dtd"
   xmlns="http://www.w3.org/2000/svg"
   xmlns:svg="http://www.w3.org/2000/svg"><defs
   id="defs10" /><sodipodi:namedview
   id="namedview8"
   pagecolor="#ffffff"
   bordercolor="#000000"
   borderopacity="0.25"
   inkscape:showpageshadow="2"
   inkscape:pageopacity="0.0"
   inkscape:pagecheckerboard="0"
   inkscape:deskcolor="#d1d1d1"
   showgrid="false"
   inkscape:zoom="1.515625"
   inkscape:cx="256"
   inkscape:cy="256"
   inkscape:window-width="1920"
   inkscape:window-height="974"
   inkscape:window-x="-11"
   inkscape:window-y="-11"
   inkscape:window-maximized="1"
   inkscape:current-layer="g5" />
<g
   id="g5"
   style="fill:#aaa6c3;fill-opacity:1">
	
	<path
   id="Path_2520"
   d="m 19.166,19.073 h -3.007 v -4.709 c 0,-1.123 -0.02,-2.568 -1.564,-2.568 -1.566,0 -1.806,1.223 -1.806,2.487 v 4.79 H 9.783 V 9.389 h 2.887 v 1.323 h 0.04 c 0.589,-1.006 1.683,-1.607 2.848,-1.564 3.048,0 3.609,2.005 3.609,4.612 z M 6.39,8.065 c -0.964,0 -1.745,-0.781 -1.745,-1.745 0,-0.964 0.781,-1.745 1.745,-1.745 0.964,0 1.745,0.781 1.745,1.745 0,0.964 -0.781,1.745 -1.745,1.745 v 0 M 7.893,19.073 H 4.883 V 9.389 h 3.01 z M 20.665,1.783 H 3.372 C 2.555,1.774 1.885,2.429 1.875,3.246 V 20.61 c 0.01,0.818 0.68,1.473 1.497,1.464 h 17.293 c 0.819,0.01 1.492,-0.645 1.503,-1.464 V 3.245 C 22.156,2.426 21.483,1.771 20.665,1.782"
   style="fill:#aaa6c3;fill-opacity:1" />
	
</g>















</svg>
