<?xml version="1.0" encoding="UTF-8" standalone="no"?>
<!-- Generator: Adobe Illustrator 26.0.1, SVG Export Plug-In . SVG Version: 6.00 Build 0)  -->

<svg
   version="1.1"
   id="Capa_1"
   x="0px"
   y="0px"
   viewBox="0 0 24 24"
   style="enable-background:new 0 0 24 24;"
   xml:space="preserve"
   width="512"
   height="512"
   sodipodi:docname="twitter.svg"
   inkscape:version="1.2.2 (732a01da63, 2022-12-09)"
   xmlns:inkscape="http://www.inkscape.org/namespaces/inkscape"
   xmlns:sodipodi="http://sodipodi.sourceforge.net/DTD/sodipodi-0.dtd"
   xmlns="http://www.w3.org/2000/svg"
   xmlns:svg="http://www.w3.org/2000/svg"><defs
   id="defs48" /><sodipodi:namedview
   id="namedview46"
   pagecolor="#ffffff"
   bordercolor="#000000"
   borderopacity="0.25"
   inkscape:showpageshadow="2"
   inkscape:pageopacity="0.0"
   inkscape:pagecheckerboard="0"
   inkscape:deskcolor="#d1d1d1"
   showgrid="false"
   inkscape:zoom="1.515625"
   inkscape:cx="256"
   inkscape:cy="256"
   inkscape:window-width="1920"
   inkscape:window-height="974"
   inkscape:window-x="-11"
   inkscape:window-y="-11"
   inkscape:window-maximized="1"
   inkscape:current-layer="Capa_1" />
<path
   id="Logo_00000038394049246713568260000012923108920998390947_"
   d="M21.543,7.104c0.014,0.211,0.014,0.423,0.014,0.636  c0,6.507-4.954,14.01-14.01,14.01v-0.004C4.872,21.75,2.252,20.984,0,19.539c0.389,0.047,0.78,0.07,1.172,0.071  c2.218,0.002,4.372-0.742,6.115-2.112c-2.107-0.04-3.955-1.414-4.6-3.42c0.738,0.142,1.498,0.113,2.223-0.084  c-2.298-0.464-3.95-2.483-3.95-4.827c0-0.021,0-0.042,0-0.062c0.685,0.382,1.451,0.593,2.235,0.616  C1.031,8.276,0.363,5.398,1.67,3.148c2.5,3.076,6.189,4.946,10.148,5.145c-0.397-1.71,0.146-3.502,1.424-4.705  c1.983-1.865,5.102-1.769,6.967,0.214c1.103-0.217,2.16-0.622,3.127-1.195c-0.368,1.14-1.137,2.108-2.165,2.724  C22.148,5.214,23.101,4.953,24,4.555C23.339,5.544,22.507,6.407,21.543,7.104z"
   style="fill:#aaa6c3;fill-opacity:1" />















</svg>
